<svg width="1200" height="900" viewBox="0 0 1200 900" fill="none" xmlns="http://www.w3.org/2000/svg">
<rect width="1200" height="900" rx="28" fill="url(#paint0_radial_1_1)"/>
<rect x="80" y="120" width="1040" height="620" rx="24" fill="#0F172A"/>
<rect x="120" y="200" width="960" height="480" rx="18" fill="#111827" stroke="#1E293B" stroke-width="2"/>
<rect x="160" y="260" width="320" height="300" rx="16" fill="#0EA5E9" fill-opacity="0.08" stroke="#22D3EE" stroke-opacity="0.3" stroke-width="2"/>
<rect x="520" y="260" width="520" height="120" rx="16" fill="#1F2937" stroke="#38BDF8" stroke-opacity="0.6" stroke-width="2"/>
<rect x="520" y="420" width="520" height="140" rx="16" fill="#111827" stroke="#6366F1" stroke-width="2" stroke-opacity="0.5"/>
<circle cx="220" cy="320" r="26" fill="#22D3EE" fill-opacity="0.4"/>
<circle cx="220" cy="320" r="12" fill="#22D3EE"/>
<rect x="260" y="300" width="180" height="16" rx="8" fill="#E2E8F0"/>
<rect x="260" y="328" width="140" height="12" rx="6" fill="#94A3B8"/>
<rect x="560" y="304" width="180" height="14" rx="7" fill="#E2E8F0"/>
<rect x="560" y="334" width="260" height="12" rx="6" fill="#CBD5E1"/>
<rect x="560" y="452" width="200" height="14" rx="7" fill="#E2E8F0"/>
<rect x="560" y="484" width="320" height="12" rx="6" fill="#CBD5E1"/>
<rect x="560" y="516" width="260" height="12" rx="6" fill="#CBD5E1"/>
<rect x="840" y="304" width="160" height="14" rx="7" fill="#22D3EE" fill-opacity="0.3"/>
<rect x="880" y="484" width="120" height="12" rx="6" fill="#22D3EE" fill-opacity="0.3"/>
<circle cx="180" cy="220" r="10" fill="#38BDF8"/>
<circle cx="210" cy="220" r="10" fill="#6366F1"/>
<circle cx="240" cy="220" r="10" fill="#22D3EE"/>
<defs>
<radialGradient id="paint0_radial_1_1" cx="0" cy="0" r="1" gradientUnits="userSpaceOnUse" gradientTransform="translate(200 200) rotate(45) scale(900 900)">
<stop stop-color="#E0F2FE"/>
<stop offset="0.5" stop-color="#EEF2FF"/>
<stop offset="1" stop-color="#F8FAFC"/>
</radialGradient>
</defs>
</svg>
